<svg version="1.1" id="Layer_1" xmlns="http://www.w3.org/2000/svg" x="0" y="0" viewBox="-255 347 100 100" xml:space="preserve"><style>.st1{fill:none;stroke:#fff;stroke-width:4;stroke-miterlimit:10}.st2{fill:#fff}</style><ellipse class="st1" cx="-175.8" cy="435.9" rx="10" ry="10.2"/><circle class="st2" cx="-175.8" cy="436.1" r="3.9"/><path class="st1" d="M-236.3 437.5h4.6c.9 0 1.6.7 1.6 1.6v5.4c0 .9-.7 1.6-1.6 1.6h-4.6c-.9 0-1.6-.7-1.6-1.6v-5.4c0-.9.7-1.6 1.6-1.6z"/><path class="st2" d="M-231.8 404.4h54.8v4h-54.8z"/><path transform="rotate(4.793 -230.857 397.92)" class="st2" d="M-232.8 358.3h3.9v79.3h-3.9z"/><path transform="rotate(176.394 -178.452 389.083) scale(.99998)" class="st2" d="M-180.4 358.3h3.9v61.5h-3.9z"/><path class="st2" d="M-228.8 372.4s19.8 2 24.3 2 24.3-2 24.3-2v-4s-19.5 1.9-24.2 1.9-24.4-1.9-24.4-1.9v4zM-182.2 358.5s-2.1-5.9-7.3-6.4c-5.6-.5-28-.5-30 0-5.4 1.4-6.1 6.3-6.1 6.3s-4.2 2.6-3.9-.3 2.3-6.4 6.7-8.8c3.5-1.8 34.2-2.1 37.7 0 3.8 2.2 6.1 6.6 6.7 8.9.6 2.4-3.8.3-3.8.3z"/></svg>