<svg version="1.1" id="OBJECTS" xmlns="http://www.w3.org/2000/svg" x="0" y="0" viewBox="-55 147 500 500" xml:space="preserve"><style>.st0{fill:none;stroke:#fff;stroke-width:15;stroke-miterlimit:10}</style><path class="st0" d="M19.3 368.1l161.4-120.8c9.1-6.8 21.6-6.8 30.7 0l160.5 120.8c6.4 4.8 10.2 12.4 10.2 20.4v204.8c0 14.1-11.4 25.6-25.6 25.6h-322c-14.1 0-25.6-11.4-25.6-25.6V388.6c.1-8.1 3.9-15.7 10.4-20.5z"/><path class="st0" d="M386.5 403.2h23.3c13.1 0 23.7-10.6 23.7-23.7v-27.1c0-7.4-3.4-14.3-9.2-18.8L210 168c-8.5-6.6-20.4-6.6-29 0L-34.2 333.6c-5.8 4.5-9.3 11.4-9.3 18.8v27.1c0 13.1 10.6 23.7 23.7 23.7H5.1M263.5 618.7h-137V446.9c0-10.9 8.9-19.8 19.8-19.8h97.4c10.9 0 19.8 8.9 19.8 19.8v171.8z"/></svg>