<svg version="1.1" id="OBJECTS" xmlns="http://www.w3.org/2000/svg" x="0" y="0" viewBox="-55 147 500 500" xml:space="preserve"><style>.st0{fill:#fff}</style><path class="st0" d="M-4.3 572l25.7 25.7c16.8 16.8 45 17.7 63 2.2l45.2-39.2c.6-.5 1.1-1.1 1.5-1.7l44-73.3 28.2-9.4c2.4-.8 4.2-2.8 4.8-5.2.6-2.4-.2-5-1.9-6.8l-77-77c-1.4-1.4-3.2-2.1-5.1-2.1-.6 0-1.1.1-1.7.2-2.4.6-4.4 2.4-5.2 4.8l-9.4 28.3-74.4 44.9c-.7.4-1.2.9-1.7 1.5l-38.2 44.3C-22.1 527-21 555.2-4.3 572zm8.7-53.5l37.5-43.4 75.7-45.7c1.5-.9 2.6-2.3 3.1-3.9l6.6-19.7 17.3 17.3 25.7 25.7 17.3 17.3-19.7 6.6c-1.6.5-3 1.7-3.9 3.1l-44.7 74.7L75 588.9c-12.3 10.7-31.7 10-43.2-1.5L6.1 561.7c-11.6-11.5-12.3-30.9-1.7-43.2z"/><path class="st0" d="M16.3 319.3C37.6 340.6 69 348 97.4 338.8l154.3 154.3c-9.2 28.4-1.8 59.8 19.5 81.1 22.5 22.4 56.1 29.5 85.6 17.9 2.3-.9 4-2.9 4.5-5.3s-.2-4.9-2-6.6L313.1 534l30.8-30.8 46.2 46.2c1.7 1.7 4.2 2.5 6.6 2s4.4-2.2 5.3-4.5c11.6-29.6 4.6-63.2-17.9-85.6-21.3-21.3-52.7-28.7-81.1-19.5L245.3 384l71.8-71.8 45.7-25.5c1.3-.7 2.3-1.8 2.9-3.1l20.5-41.1c1.4-2.8.8-6.2-1.4-8.4l-25.5-25.6c-1.4-1.4-3.3-2.1-5.1-2.1-1.1 0-2.2.3-3.2.8l-41.1 20.5c-1.3.7-2.4 1.7-3.1 2.9l-25.5 45.7-71.8 71.8-60.7-60.7c9.2-28.4 1.8-59.8-19.5-81.1C114 191.1 93.5 183 72.7 183c-9.8 0-19.7 1.8-29.1 5.5-2.3.9-4 2.9-4.5 5.3s.2 4.9 2 6.6l46.2 46.1-30.8 30.8-46.2-46.1c-1.7-1.7-4.2-2.5-6.6-2-2.4.5-4.4 2.2-5.3 4.5-11.6 29.5-4.5 63.1 17.9 85.6zm275.9-33.5c.5-.5.9-1 1.2-1.6l24.9-44.6 34.4-17.2 18.3 18.3-17.2 34.4-44.6 24.9c-.6.3-1.1.7-1.6 1.2l-72.5 72.5-15.5-15.3 72.6-72.6zM8.7 250.1l42.7 42.7c2.8 2.8 7.4 2.8 10.3 0l41.1-41.1c1.4-1.4 2.1-3.2 2.1-5.1 0-1.9-.8-3.8-2.1-5.1l-42.7-42.7c21.2-4.2 43.3 2.3 59 17.9 18.4 18.4 24.1 45.9 14.6 70.1-1.1 2.7-.4 5.7 1.6 7.8l160.8 160.8c1.4 1.4 3.2 2.1 5.1 2.1.9 0 1.8-.2 2.6-.5 24.2-9.5 51.7-3.7 70.1 14.6 15.6 15.6 22.1 37.8 17.9 59l-42.7-42.7c-2.8-2.8-7.4-2.8-10.3 0L297.7 529c-2.8 2.8-2.8 7.4 0 10.3l42.7 42.7c-21.2 4.2-43.3-2.3-59-17.9-18.4-18.4-24.1-45.9-14.6-70.1 1.1-2.7.4-5.7-1.6-7.8L104.4 325.3c-2-2-5.1-2.7-7.8-1.6-24.2 9.5-51.7 3.7-70.1-14.6-15.5-15.7-22-37.9-17.8-59z"/></svg>