<svg version="1.1" id="OBJECTS" xmlns="http://www.w3.org/2000/svg" x="0" y="0" viewBox="-55 147 500 500" xml:space="preserve"><style>.st0{fill:#fff}</style><path class="st0" d="M130.9 413.6c9.7 0 17.6-7.9 17.6-17.6 0-9.7-7.9-17.6-17.6-17.6s-17.6 7.9-17.6 17.6c0 9.8 7.9 17.6 17.6 17.6zm0-22.1c2.5 0 4.6 2.1 4.6 4.6s-2.1 4.6-4.6 4.6-4.6-2.1-4.6-4.6c0-2.6 2-4.6 4.6-4.6zM202.5 306.9c-9.7 0-17.6 7.9-17.6 17.6 0 9.7 7.9 17.6 17.6 17.6s17.6-7.9 17.6-17.6c-.1-9.7-7.9-17.6-17.6-17.6zm0 22.1c-2.5 0-4.6-2.1-4.6-4.6s2.1-4.6 4.6-4.6 4.6 2.1 4.6 4.6-2.1 4.6-4.6 4.6z"/><path class="st0" d="M426.2 285.1c0-6.2-2.5-11.9-6.6-16-3.6-25.3-15.8-48.5-34.6-65.8-19.5-17.9-45-28.3-71.8-29-24-.7-47.1 6.2-66.7 19.8-.1 0-.1.1-.2.1-3.1 2.1-6.6 3.6-10.2 4.1l-52.5 8.2c-14.6 2.3-25.2 14.7-25.2 29.4v42.6h-4.6c-2.7-7.9-10.2-13.6-19-13.6s-16.2 5.7-18.9 13.6H99.1c-7.8 0-14.2 6.4-14.2 14.2v16.8c-7.9 2.7-13.6 10.2-13.6 19s5.7 16.2 13.6 18.9v4.6H42.3c-14.8 0-27.1 10.6-29.4 25.2l-8.2 52.5c-.6 3.6-2 7.1-4.1 10.2-.1.1-.1.1-.1.2-13.7 19.6-20.5 42.7-19.8 66.7.8 26.7 11.1 52.2 29 71.8 17.3 18.8 40.5 31 65.8 34.6 4.1 4.1 9.7 6.6 16 6.6 6.2 0 11.9-2.5 16-6.6 54.3-7.8 94.9-54.5 94.9-109.7 0-26-12.6-54.2-25.8-72.2.8-2.3 1.1-4.9.7-7.4l-7.3-46.6c-2.3-14.6-14.7-25.2-29.4-25.2H98v-4.6c7.9-2.7 13.6-10.2 13.6-18.9s-5.7-16.2-13.6-19v-16.8c0-.7.5-1.2 1.2-1.2H116c2.7 7.9 10.2 13.6 18.9 13.6 8.8 0 16.2-5.7 18.9-13.6h4.6v42.6c0 14.8 10.6 27.1 25.2 29.4l46.6 7.3c.8.1 1.6.2 2.3.2 1.8 0 3.5-.3 5.1-.9 18 13.2 46.2 25.8 72.2 25.8 55.2 0 101.9-40.6 109.7-94.9 4.1-4.1 6.7-9.8 6.7-16zM162.5 503.5c0 39.2-31.9 71-71 71s-71-31.9-71-71c0-39.2 31.9-71 71-71s71 31.8 71 71zm-71 103.3c-5.3 0-9.6-4.3-9.6-9.6s4.3-9.6 9.6-9.6 9.6 4.3 9.6 9.6c.1 5.2-4.3 9.6-9.6 9.6zm22.6-8.1c0-.5.1-1 .1-1.5 0-4.4-1.2-8.4-3.4-11.9 37.1-8.7 64.8-42.1 64.8-81.8 0-26.8-12.6-50.6-32.1-66 5.1.9 10.1 1.9 14.9 3.1 1.4.4 2.8.6 4.2.6 1.6 0 3.2-.3 4.6-.7 11.3 15.9 22.2 40.8 22.2 63.1 0 45.6-31.7 84.8-75.3 95.1zm43.1-219.5l7.3 46.6c.1.6-.1 1.2-.5 1.6-.5.6-1.3.8-2.1.6-.1 0-.2-.1-.3-.1-23.3-5.9-68-8.5-70.1-8.5-46.3 0-84 37.7-84 84 0 39.7 27.7 73 64.8 81.8-2.1 3.5-3.4 7.5-3.4 11.9 0 .5 0 1.1.1 1.6-19-4.4-36.3-14.5-49.6-28.9-15.8-17.2-24.9-39.7-25.6-63.3-.6-21.2 5.4-41.5 17.4-58.8 0 0 .1-.1.1-.2 3.3-4.7 5.5-10.2 6.4-15.8l8.2-52.5c1.3-8.2 8.3-14.2 16.6-14.2h98.1c8.3 0 15.3 6 16.6 14.2zm-65.7-43.6c-3.9 0-7.1-3.2-7.1-7.1s3.2-7.1 7.1-7.1 7.1 3.2 7.1 7.1-3.2 7.1-7.1 7.1zm43.4-43.4c-3.9 0-7.1-3.2-7.1-7.1s3.2-7.1 7.1-7.1 7.1 3.2 7.1 7.1-3.2 7.1-7.1 7.1zm278.3-7.1c0 5.3-4.3 9.6-9.6 9.6s-9.6-4.3-9.6-9.6 4.3-9.6 9.6-9.6 9.6 4.3 9.6 9.6zm-181 73l-46.6-7.3c-8.2-1.3-14.2-8.3-14.2-16.6v-98.1c0-8.3 6-15.3 14.2-16.6l52.5-8.2c5.6-.9 11.1-3.1 15.8-6.4l.1-.1c17.3-12 37.6-18.1 58.8-17.4 23.6.7 46.1 9.8 63.3 25.6 14.5 13.3 24.5 30.6 28.9 49.6-.5 0-1-.1-1.6-.1-4.4 0-8.4 1.2-11.9 3.4-8.7-37.1-42.1-64.8-81.8-64.8-46.3 0-84 37.7-84 84 0 2.1 2.7 46.8 8.5 70.1 0 .1.1.2.1.3.1.2.1.4.1.6 0 .5-.2 1.1-.7 1.5-.3.4-.9.6-1.5.5zm6.6-73c0-39.2 31.9-71 71-71 39.2 0 71 31.9 71 71 0 39.2-31.9 71-71 71s-71-31.8-71-71zm71.1 97.9c-22.2 0-47.1-11-63.1-22.2.5-1.5.7-3 .7-4.6 0-1.4-.2-2.8-.6-4.2-1.2-4.8-2.2-9.8-3.1-14.9 15.4 19.5 39.3 32.1 66 32.1 39.7 0 73-27.7 81.8-64.8 3.5 2.1 7.5 3.4 11.9 3.4.5 0 1 0 1.5-.1-10.2 43.6-49.4 75.3-95.1 75.3z"/></svg>