<svg version="1.1" id="Layer_1" xmlns="http://www.w3.org/2000/svg" x="0" y="0" viewBox="-60 151.3 490.7 490.7" xml:space="preserve"><style>.st0{fill:#fff}</style><path class="st0" d="M249.5 163.8c-100 0-181.3 81.3-181.3 181.3 0 72.4 43 137.7 109.4 166.4 1.4.6 2.8.9 4.2.9 4.1 0 8.1-2.4 9.8-6.4 2.3-5.4-1.1-10.7-6.6-13-58.6-25.4-98.6-84-98.6-147.9 0-88.2 74.8-163 163-163s163 74.8 163 163c0 53.3-28.4 103.9-72.7 133.8-4.9 3.3-7.2 8.9-3.9 13.8 3.3 4.9 9.9 6.2 14.8 2.9 50.2-33.8 80.1-90 80.1-150.4.2-100.1-81.2-181.4-181.2-181.4z"/><path class="st0" d="M331.7 561.6L257 490.9c-4.2-4.2-10.9-4.2-15.1 0l-77.8 77.8-205.8-207.8c-4.2-4.2-10.9-5.2-15.1-1-4.2 4.2-4.2 9.9 0 14.1l213.3 213.3c2.1 2.1 4.8 3.1 7.6 3.1 2.7 0 5.5-1 7.6-3.1l77.8-79.8 67.1 69.1c4.2 4.2 5.9.2 10.1-4 4.2-4.1 9.2-6.8 5-11z"/><path class="st0" d="M381.6 505.9c-4-1.7-8.6-.8-11.6 2.3L263.3 614.9c-3.1 3.1-4 7.6-2.3 11.6 1.6 4 5.5 6.6 9.9 6.6h106.7c5.9 0 10.7-4.8 10.7-10.7V515.8c-.1-4.3-2.7-8.2-6.7-9.9zm-10.7 106.9h-77.3l77.3-76.3v76.3zM251.7 336.7l-2.3-.4c-21.7-4-33.9-12.7-33.9-23.1 0-11.6 16.7-24.3 34-24.3 16.7 0 32.1 12 33 23.2.5 5.9 4.7 10.3 10.5 9.7 5.9-.5 9.2-5.7 8.7-11.5-1.9-22.7-23.8-39.7-52.3-39.7-29.4 0-53.4 19.1-53.4 42.7 0 21.9 16.6 34.1 51.2 40.5l2.3.4c21.7 4 33.8 12.7 33.8 23.1 0 11.6-16.7 24.3-34 24.3-16.7 0-32.1-12-33-23.2-.5-5.9-4.7-10.3-10.5-9.7-5.9.5-9.2 5.7-8.7 11.5 1.9 22.6 23.8 39.7 52.3 39.7 29.4 0 53.4-19.1 53.4-42.7.1-22-16.5-34.1-51.1-40.5z"/><path class="st0" d="M249.5 249.1c-5.9 0-8.7 4.8-8.7 10.7v170.7c0 5.9 2.8 10.7 8.7 10.7s8.7-4.8 8.7-10.7V259.8c0-5.9-2.8-10.7-8.7-10.7z"/></svg>