<svg version="1.1" id="Layer_1" xmlns="http://www.w3.org/2000/svg" x="0" y="0" viewBox="-113 205 384 384" xml:space="preserve"><style>.st1{fill:#fff}.st2{fill:none;stroke:#fff;stroke-width:15;stroke-miterlimit:10}</style><path class="st1" d="M77.1 421.1c-10.7-1.6-29.6-10-29.2-22.2.6-18.3 16.9-21.3 29.2-21.3s34.2 13.2 34.2 13.2l9.8-18.3s-19.3-16.7-39.9-16.1v-1.6l-10.2-5v6.6c-22.9-.6-47.3 15-45.3 42.4 2.2 30.6 34.9 42.1 51.5 43.5 12.3 1.1 30.2 10 30.2 22.2 0 12.3-11.3 18.4-30.2 17.2-12.3-.8-42.2-17.2-42.2-17.2l-12.3 18.4s33.4 21.8 49.4 21l-1 7.6 10.2-1V504c29.5.5 48.3-22 48.3-35.4 0-26.3-21.2-42.9-52.5-47.5z"/><path class="st1" d="M70.1 343.9h11.3v173.5H70.1z"/><path class="st2" d="M215.7 569h-280c-20.2 0-36.5-16.3-36.5-36.5v-220c0-20.2 16.3-36.5 36.5-36.5h280c20.2 0 36.5 16.3 36.5 36.5v220c0 20.2-16.4 36.5-36.5 36.5zM41.2 216h71c18.2 0 33 14.8 33 33v26H8.2v-26c0-18.2 14.8-33 33-33z"/></svg>