<?xml version="1.0" encoding="utf-8"?>
<!-- Generator: Adobe Illustrator 19.0.1, SVG Export Plug-In . SVG Version: 6.00 Build 0)  -->
<svg version="1.1" id="Layer_1" xmlns="http://www.w3.org/2000/svg" xmlns:xlink="http://www.w3.org/1999/xlink" x="0px" y="0px"
	 viewBox="0 0 500 500" style="enable-background:new 0 0 500 500;" xml:space="preserve">
<style type="text/css">
	.st0{fill:#FFFFFF;}
</style>
<g>
	<g>
		<path class="st0" d="M229.4,122H128.8c-4,0-7.3,3.3-7.3,7.3c0,4,3.3,7.3,7.3,7.3h100.5c4,0,7.3-3.3,7.3-7.3
			C236.6,125.2,233.4,122,229.4,122z"/>
	</g>
</g>
<g>
	<g>
		<path class="st0" d="M366,366.7h-53.8c-4,0-7.3,3.3-7.3,7.3c0,4,3.3,7.3,7.3,7.3H366c4,0,7.3-3.3,7.3-7.3
			C373.2,369.9,370,366.7,366,366.7z"/>
	</g>
</g>
<g>
	<g>
		<path class="st0" d="M441.5,140.8c3.1,2.5,7.7,2.1,10.2-1.1c18-22.1,30.9-40.6,38.6-54.9c3.8-7.2,15.5-29,3.7-40.8
			c-10.2-10.2-29.4-5.3-60.3,15.6c-9.5,6.5-20.3,14.5-32.2,24c-3.1-10.5-6.9-18.9-11.5-25.3c-7.4-10.3-16.9-15.5-28.1-15.5H44.5
			c-15,0-26.4,4.8-33.7,14.4C-3.6,75.7,3.9,104.8,4.2,106c0.8,3.2,3.7,5.4,7,5.4h64c6.5,41.4,6.2,100.2,5.9,154.4
			c-0.5,91.5-1,178,26,205.2c6.1,6.2,13.4,9.3,21.7,9.3h317.4c15,0,26.4-4.8,33.7-14.4c14.3-18.5,6.8-47.6,6.5-48.8
			c-0.8-3.2-3.7-5.4-7-5.4H418c-5.5-38.7-5.2-93.1-4.9-145.8c0.2-27.1,0.3-55.1-0.3-81.1c7.1-7.8,13.8-15.4,20.1-22.7
			c2.6-3,2.3-7.6-0.7-10.3c-3-2.6-7.6-2.3-10.3,0.7c-6.3,7.3-13.2,15.1-20.4,23c-3.3-0.1-11.1-1.6-21.6-11c0,0,0,0-0.1,0
			c-1.1-1-2.2-2.1-3.3-3.1c-6.7-6.7-13.8-15-14.2-24.9c7.9-7.1,15.8-14.2,23.9-21.1c1.3-1.1,2.6-2.2,3.9-3.3
			c80.6-68.8,93.1-58.3,93.6-57.8c0.4,0.4,9.7,11-43.3,76.2C437.9,133.7,438.4,138.3,441.5,140.8z M17.3,96.9L17.3,96.9
			c-1.1-7.7-1.9-21.9,5-30.8c4.5-5.8,11.6-8.6,21.8-8.7c1.6,0.2,3.4,0.2,5,0.6c9.6,2.5,17.1,14,22.4,34.3c0.4,1.5,0.8,3,1.1,4.6
			L17.3,96.9L17.3,96.9z M473.5,426.3c1.1,7.7,1.9,21.8-5,30.8c-4.5,5.8-11.8,8.7-22.2,8.7H162.7c0.1-0.1,0.2-0.3,0.3-0.4
			c5.3-7.2,7.6-16.2,8.1-25c0.3-4.7,0.1-9.4-0.5-14.1L473.5,426.3L473.5,426.3z M366.2,171.8c0.5,0.5,4.6,4.3,6.3,5.7
			c8.4,7,15.8,10.3,21.5,11.7c-3.3,5.7-9,12.5-17.7,15.1c-1.6,0.5-3.2,0.8-4.8,0.6c-4-0.3-12.7-2.5-24.3-14.2
			c-2.9-2.9-5.6-6-7.9-9.4c-6.8-9.9-6.3-16.3-6.2-17.2c0,0,0-0.1,0-0.1c0,0,0,0,0-0.1c0.1-0.8,0.4-1.6,0.6-2.4
			c2.5-8.7,9.4-14.3,15.1-17.7c-0.5,0.3,1.1,3.6,1.3,4.1C353.4,157.1,359.5,165,366.2,171.8z M225.7,312.3c-5.8-5.8-15.3-5.8-21.1,0
			c-4,4-5.2,9.6-3.8,14.6l-46.6,46.6l-0.9-0.9c24.2-27.8,32.4-65.7,34.7-79.8c14.7-3.3,27.8-12.2,36.4-19.3
			c3.3,9.1,9.4,17,16.2,23.8c6.8,6.8,14.7,12.9,23.8,16.2c0,0,0,0,0.1,0c-7.1,8.6-16,21.7-19.3,36.4c-14.1,2.3-52,10.5-79.8,34.7
			l-0.9-0.9l46.6-46.6c5,1.4,10.7,0.2,14.6-3.8C231.5,327.6,231.5,318.2,225.7,312.3z M250.9,287.1c-6.3-6.3-15.4-16.7-14.2-26.6
			c0-0.1,0.3-1,0.3-1.4c2.2-9.4,8.9-15.9,14.5-19.8c1.6,5.6,4.9,12.8,11.2,20.8c0.1,0.1,0.1,0.2,0.2,0.2c9.2,11.6,21.2,21.8,35.7,26
			c0,0,0,0,0,0c-3.9,5.6-10.4,12.3-19.8,14.6c-0.9,0.2-1.7,0.4-2.5,0.4C272.9,301.4,263.7,300,250.9,287.1z M282.7,260.3
			c-8.2-7.5-16.7-17.5-18-29c0-0.1,0-0.1,0-0.2c0,0,0-0.2,0-0.3c13.3-13.5,55-54.5,55.6-55c1.7,5.1,4.3,9.9,7.4,14.3
			c3.2,4.6,7,8.7,11,12.6c6.7,6.4,14.5,12.1,23.4,15c0.1,0,0.1,0,0.2,0.1c-21.2,22.1-40.9,41.7-55,55.6c0,0-0.1,0-0.1,0
			c-2-0.2-4-0.7-6-1.4C294.2,269.6,288,265.2,282.7,260.3z M356.1,122.5c-1.5,1.4-3,2.7-4.6,4.1c-5.9,2.1-24.7,10.1-31.2,29
			c-3.5,3.3-6.9,6.6-10.3,9.8H128.8c-4,0-7.3,3.3-7.3,7.3c0,4,3.3,7.3,7.3,7.3H295c-9.1,8.9-17.6,17.4-25.2,25H128.8
			c-4,0-7.3,3.3-7.3,7.3c0,4,3.3,7.3,7.3,7.3h126.5c-0.7,0.7-1.4,1.4-2.1,2.2c-4.7,2.1-18.3,9-26,22.8h-98.4c-4,0-7.3,3.3-7.3,7.3
			c0,4,3.3,7.3,7.3,7.3h90c-7.6,6.9-22.4,18.4-38.2,20.3c-3.4,0.4-6,3.1-6.4,6.4c-0.1,0.5-5.9,51.5-36.3,81.8
			c-2.8,2.8-2.8,7.5,0,10.3c0,0,22,22,22,22c2.8,2.8,7.5,2.8,10.3,0c30.2-30.2,81.3-36.2,81.8-36.3c3.4-0.4,6-3,6.4-6.4
			c2.4-19.5,19.5-37.6,24.3-42.4c20.9-5.3,30.9-24.5,33.4-30.2c16.3-16,40.6-40.2,66.1-67.1c6.7-2.3,12.1-6.2,16.2-10.5
			c0.2,19.3,0.1,39.2,0,58.6c-0.3,52.3-0.6,106.2,4.7,145.8c0,0-241,0-241.2,0c-4.7,0-8.2,4.6-7,9.1c0.1,0.3,8.1,32.3-10.9,41.9
			l-15.9,3c-4.1-0.1-7.6-1.7-10.8-5c-22.7-22.9-22.2-114.2-21.8-194.8C96,202.8,96.4,142,88,99.9c-2.9-14.8-7-30.3-16.2-42.5h290
			c12.3,0,21.3,11.9,27.3,36.3C378,103.1,367,112.7,356.1,122.5z"/>
	</g>
</g>
</svg>
