<svg xmlns="http://www.w3.org/2000/svg" viewBox="-82 174.5 445.5 445.5"><path d="M146 213.7v-9.5c0-7 .4-12.7-.9-12.7s-.9 5.7-.9 12.7v9.5C37.9 218-59.3 291.2-67.6 381.8c10.3-7.4 26-12.2 43.6-12.2 27.3 0 50.1 11.5 55.2 26.7h2.3c5.3-15.1 28-26.5 55.2-26.5 17.6 0 41.7 4.8 52.1 12.2v169.8c-1.2 28.3-8.6 51.9-39.8 51-29.3-.8-50-23.2-50-51 0-7 1.8-12.7.7-12.7-.8 0-.9 5.7-.8 12.7C51 572 62.2 603 101 603c26.6 0 40-19.2 40-51V382c10.3-7.4 42.9-12.2 60.5-12.2 27.3 0 50.1 11.5 55.2 26.7h2.3c5.3-15.1 28-26.5 55.2-26.5 17.6 0 33.3 4.7 43.6 12.2-8.3-90.9-105.4-163.1-211.8-168.5z" fill="none" stroke="#fff" stroke-width="13" stroke-miterlimit="10"/></svg>