<svg version="1.1" id="Isolation_Mode" xmlns="http://www.w3.org/2000/svg" x="0" y="0" viewBox="0 93 611.9 607" xml:space="preserve"><style>.st0{fill:none;stroke:#fff;stroke-width:15;stroke-miterlimit:10}</style><path class="st0" d="M18.1 585.2L230.2 250c8.4-13.3 29.4-13.3 37.8 0l212.1 335.2c8.4 13.3-2.1 29.9-18.9 29.9H37c-16.8-.1-27.3-16.7-18.9-29.9z"/><path class="st0" d="M18.1 585.2L130.3 408l91.5-71.1c5-7.5 7.7 90.7 18.9 90.7 0 0 49.9-45.6 59.1-41.7 9.1 4 72.2 88.7 108.7 99.4 39.3 28.4 66.7 90.2 66.7 90.2 8.4 13.3 11.9 39.5-4.9 39.5H45.8c-16.8 0-36.1-16.6-27.7-29.8z"/><path class="st0" d="M317.7 322.4l47.7-85.5c7.6-13.8 28-15 37.7-2.3L590 499.8c9.2 12.7-3.4 40.3-20.2 41.3l-114.4-1.7-28.6-38.4c-11.2-7.1-97.7-154.5-109.1-178.6z"/><path class="st0" d="M391.9 450.2s48.3-64 58.4-62.2 43.2 36 81.3 60.3c92.2 47.1 49.3 88.2 49.3 88.2 6.5 4.9-108.6-1-125.5 3.1L426.8 501c-18.6-21.8-46.5-62.1-34.9-50.8zM499.1 328.5"/></svg>