<svg version="1.1" id="OBJECTS" xmlns="http://www.w3.org/2000/svg" x="0" y="0" viewBox="-55 147 500 500" xml:space="preserve"><style>.st0{fill:none;stroke:#fff;stroke-width:15;stroke-miterlimit:10}.st1{fill:#fff}</style><path class="st0" d="M225.6 275.8c0-9.2 16.6 2 43-31.4.5-.6 1 1.3 1.6 2 44.3 56.5 102.1 38.6 102.1 48.7 0 52.7-22.9 91-67.1 91s-79.6-9.6-79.6-110.3z"/><path class="st0" d="M241.4 196.1l2-2c52-58.3 148.6-3.9 148.6 53.7l-1.3 137c0 6.6-5.4 12-12 12l-47.2-2.7-2.1-12.5s-13.6 4.5-30.8 4.5c-17.2 0-29.1-4.4-29.1-4.4l-3.6 15.1h-48.7c-6.6 0-12-5.4-12-12v-145c.2-6.7 16.2-42.4 36.2-43.7zM13 282.9c0-7.3-3.1-11.4 3.5-13.5 16.5-5.3 20.3-19 24.6-32 1-3.1 26.4-.3 50.2-.3 23.9 0 45.3-2 48.5 2.3 8.3 10.9 7.1 28 22.9 30.8 6.9 1.2 2.2 9.4 2.2 16.8"/><path class="st0" d="M-2.3 269.9c0-46 14.6-102.1 91.3-100.8 75 1.3 92.7 55.4 92.7 101.3 0 8.3-16 1.9-16.3 12.5-1.9 63.8-22.8 105.3-73.7 105.4-56.3.1-79.3-43.5-78.7-107.2.1-8-15.3-4.5-15.3-11.2zM147 474.1c0-5.6 51.2 14.9 68.3-24.7.7-1.5 2.1-3.2 2.6-1.4 4.9 18.9 25.4 26 25.4 26 0 60-19.4 74-50 74-33.6.1-46.3-33.2-46.3-73.9z"/><path class="st0" d="M252 475.9c0-42.2-3-76.2-54.3-76.2-58.7 0-59.7 34.2-59.7 76.3M10.3 273.2c-8.1 0-14.6 7.5-14.6 16.8s6.6 16.8 14.6 16.8M168.6 272.4c8.1.3 14.4 8 14.1 17.3-.3 9.3-7.1 16.6-15.2 16.3"/><path class="st0" d="M143.9 473.7c-6.2.5-10.7 6.5-10.1 13.4s6 12.1 12.2 11.6M246.9 475.9c5.5.4 9.6 5.8 9.1 12.1-.4 6.3-5.2 11.1-10.7 10.7"/><path class="st0" d="M52.2 407.8H62s3.3 24.8 30.3 24.8 29.7-24.8 29.7-24.8h32.7s14-13.1 40.3-13.1c29.2 0 41.2 13.1 41.2 13.1l31.8-.1s0 26.1 28 26.7c31 .7 31-26.6 31-26.6h10.8c49.8 0 90.2 40.4 90.2 90.2v112.9c0 13.3-10.7 24-24 24H-14c-13.3 0-24-10.7-24-24V498c0-49.8 40.4-90.2 90.2-90.2zM268 406.8v-29.7 29.7zM327 409.8v-29.7 29.7zM62 409.8v-29.7 29.7zM122 409.8v-29.7 29.7z"/><path class="st0" d="M163.7 555.1s10.3 20.6 31.3 20.6 31.3-20.6 31.3-20.6c28.5 0 51.7 21.2 51.7 47.3V635H112v-32.6c0-26.2 23.2-47.3 51.7-47.3zM220.7 563.6v-23.9 23.9zM169.5 565.3v-23.9 23.9z"/><path class="st1" d="M26 634.8h.1c3.9.3 7.4-2.6 7.8-6.5l10.2-117.9c.3-3.9-2.6-7.4-6.5-7.8h-.1c-3.9-.3-7.4 2.6-7.8 6.5L19.5 627c-.4 3.9 2.5 7.4 6.5 7.8zM370 637.4c4-.5 6.8-4.2 6.3-8.1L360.7 512c-.5-3.9-4.2-6.7-8.1-6.2h-.1c-3.9.5-6.7 4.2-6.2 8.1l15.6 117.3c.5 4 4.1 6.8 8.1 6.2z"/></svg>